<svg xmlns="http://www.w3.org/2000/svg" width="119.46" height="29.62" viewBox="0 0 119.46 29.62" class="undefined"><path d="M14.65 29.62h-2.48V10.86c0-.26.09-1.04.27-2.33L7.6 26.83h-.53L2.23 8.53c.18 1.3.27 2.08.27 2.33v18.75H0V0h2.44l4.81 19.26c.03.1.05.39.08.85 0-.19.03-.47.08-.85L12.21 0h2.44v29.62zm14.45 0h-9.73V0h9.61v2.33H22v11.05h6.36v2.37H22v11.54h7.1v2.33zm18.76 0h-2.48V10.86c0-.26.09-1.04.27-2.33l-4.84 18.3h-.53l-4.84-18.3c.18 1.3.27 2.08.27 2.33v18.75h-2.5V0h2.44l4.81 19.26c.03.1.05.39.08.85 0-.19.03-.47.08-.85L45.42 0h2.44v29.62zm17.24-2.11c0 .62-.2 1.12-.6 1.51-.4.39-.91.59-1.52.59h-8.29c-.62 0-1.12-.19-1.51-.59-.39-.39-.59-.89-.59-1.51V2.1c0-.62.2-1.12.59-1.51S54.07 0 54.69 0h8.29c.62 0 1.13.2 1.52.59.4.39.6.9.6 1.51v25.41zm-2.63-.22V2.33h-7.25v24.96h7.25zm19.96 2.33h-2.76l-5.51-15.86.36-.53h4.69V2.33h-6.76v27.29h-2.63V0h9.92c.62 0 1.12.2 1.51.59.39.39.59.9.59 1.51v11.24c0 1.43-.96 2.14-2.88 2.14-.19 0-.47-.01-.83-.03-.37-.02-.63-.03-.79-.03 1.7 4.72 3.4 9.45 5.09 14.2zm6.72 0h-2.63V0h2.63v29.62zm14.66 0h-9.73V0h9.61v2.33h-6.98v11.05h6.36v2.37h-6.36v11.54h7.1v2.33zm15.65-2.11c0 .62-.19 1.12-.58 1.51-.38.39-.89.59-1.5.59h-7.45c-.62 0-1.13-.19-1.52-.59-.4-.39-.6-.89-.6-1.51V20h2.63v7.29h6.4v-7.06l-8.17-9.88c-.57-.68-.85-1.43-.85-2.25v-6c0-.62.2-1.12.6-1.51.38-.39.89-.59 1.51-.59h7.46c.62 0 1.12.2 1.5.59s.58.9.58 1.51v6.89h-2.63V2.33h-6.4v6.25l8.21 9.88c.54.66.81 1.39.81 2.21v6.84z" class="undefined"/></svg>