<svg version="1" xmlns="http://www.w3.org/2000/svg" width="119.463" height="29.615" viewBox="0 0 119.463 29.615"><path d="M14.646 29.615h-2.479V10.862c0-.265.088-1.041.265-2.328l-4.844 18.3h-.53l-4.845-18.3c.177 1.3.265 2.076.265 2.328v18.753H0V0h2.441l4.807 19.264c.025.101.05.385.076.852 0-.189.025-.473.076-.852L12.206 0h2.441v29.615zm14.458 0h-9.727V0h9.613v2.328h-6.982v11.051h6.358v2.365h-6.358v11.543h7.096v2.328zm18.753 0h-2.479V10.862c0-.265.088-1.041.265-2.328l-4.845 18.3h-.53l-4.844-18.3c.177 1.3.265 2.076.265 2.328v18.753H33.21V0h2.441l4.807 19.264c.025.101.05.385.076.852 0-.189.025-.473.076-.852L45.416 0h2.441v29.615zm17.239-2.101c0 .619-.199 1.123-.596 1.514-.398.393-.906.588-1.524.588h-8.288c-.618 0-1.123-.195-1.514-.588-.391-.391-.586-.895-.586-1.514V2.101c0-.618.195-1.123.586-1.514S54.07 0 54.688 0h8.288c.618 0 1.125.195 1.524.586.396.391.596.896.596 1.514v25.414zm-2.631-.227V2.328h-7.248v24.959h7.248zm19.965 2.328h-2.764L74.16 13.757l.359-.53h4.693v-10.9h-6.756v27.288h-2.631V0h9.916c.619 0 1.123.195 1.514.586.393.391.588.896.588 1.514v11.24c0 1.426-.959 2.138-2.877 2.138-.189 0-.467-.009-.832-.028a17.158 17.158 0 0 0-.795-.028c1.704 4.719 3.399 9.45 5.091 14.193zm6.716 0h-2.629V0h2.629v29.615zm14.666 0h-9.727V0h9.613v2.328h-6.982v11.051h6.357v2.365h-6.357v11.543h7.096v2.328zm15.651-2.101c0 .619-.193 1.123-.578 1.514-.385.393-.887.588-1.504.588h-7.455c-.619 0-1.127-.195-1.523-.588-.398-.391-.596-.895-.596-1.514v-7.512h2.629v7.285h6.396v-7.058l-8.174-9.878c-.568-.681-.852-1.432-.852-2.252V2.101c0-.618.197-1.123.596-1.514.397-.392.905-.587 1.524-.587h7.455c.617 0 1.119.195 1.504.586s.578.896.578 1.514v6.888h-2.631v-6.66h-6.396v6.245l8.213 9.878c.543.656.814 1.394.814 2.214v6.849z"/></svg>